<?xml version="1.0" encoding="UTF-8" standalone="no"?>
<!-- Created with Inkscape (http://www.inkscape.org/) -->

<svg
   xmlns:dc="http://purl.org/dc/elements/1.1/"
   xmlns:cc="http://creativecommons.org/ns#"
   xmlns:rdf="http://www.w3.org/1999/02/22-rdf-syntax-ns#"
   xmlns:svg="http://www.w3.org/2000/svg"
   xmlns="http://www.w3.org/2000/svg"
   xmlns:sodipodi="http://sodipodi.sourceforge.net/DTD/sodipodi-0.dtd"
   xmlns:inkscape="http://www.inkscape.org/namespaces/inkscape"
   width="256"
   height="256"
   id="svg3039"
   version="1.1"
   inkscape:version="0.48.4 r9939"
   sodipodi:docname="New document 4">
  <defs
     id="defs3041" />
  <sodipodi:namedview
     id="base"
     pagecolor="#ffffff"
     bordercolor="#666666"
     borderopacity="1.0"
     inkscape:pageopacity="0.0"
     inkscape:pageshadow="2"
     inkscape:zoom="0.98994949"
     inkscape:cx="31.302374"
     inkscape:cy="125.48"
     inkscape:document-units="px"
     inkscape:current-layer="layer1"
     showgrid="false"
     inkscape:window-width="1280"
     inkscape:window-height="746"
     inkscape:window-x="0"
     inkscape:window-y="21"
     inkscape:window-maximized="1" />
  <metadata
     id="metadata3044">
    <rdf:RDF>
      <cc:Work
         rdf:about="">
        <dc:format>image/svg+xml</dc:format>
        <dc:type
           rdf:resource="http://purl.org/dc/dcmitype/StillImage" />
        <dc:title></dc:title>
      </cc:Work>
    </rdf:RDF>
  </metadata>
  <g
     inkscape:label="Layer 1"
     inkscape:groupmode="layer"
     id="layer1"
     transform="translate(0,-796.36218)">
    <path
       style="fill:#ffffff;fill-opacity:1"
       d="m 214.00266,796.36323 c -0.005,-0.004 -0.006,0.002 -0.011,0.022 -0.51192,2.13384 -2.73605,4.92448 -5.61962,7.03548 -6.89252,5.0459 -17.10017,8.7719 -33.39496,12.20217 -19.88898,4.18693 -28.72673,7.41107 -30.10105,10.98196 -1.02167,2.6546 3.40943,5.79272 12.31865,8.7284 7.73988,2.5504 17.08314,4.65148 43.79955,9.83868 3.52533,0.68447 7.69156,1.62361 9.25845,2.08866 1.56674,0.46506 3.1291,0.85981 3.47191,0.87944 0.59026,0.0337 0.61313,-1.43556 0.57865,-26.43804 -0.0196,-14.10408 -0.15361,-25.23428 -0.30047,-25.33874 z m -74.79084,34.57282 0,46.4342 0,46.43421 2.04755,0 c 3.85874,-0.009 19.85056,-0.69683 24.83755,-1.06632 28.30654,-2.09722 51.88542,-7.65623 65.79947,-15.52204 11.50304,-6.50283 17.39629,-14.43889 17.47085,-23.51391 0.0181,-2.2129 -0.16846,-3.99546 -0.5675,-5.27662 -3.37706,-10.83985 -18.34148,-19.98537 -43.17639,-26.39406 -7.0565,-1.82094 -11.75523,-2.8377 -22.06672,-4.75995 -22.98732,-4.28527 -38.13171,-9.53398 -43.06511,-14.92842 l -1.2797,-1.40709 z m 116.75431,57.51509 -0.68997,2.63831 c -1.40565,5.37846 -5.20759,11.40864 -9.62565,15.24722 -12.19753,10.59765 -35.15088,18.29957 -64.59764,21.67808 -10.67321,1.22456 -29.79154,2.47201 -37.83499,2.47342 l -4.56249,0.13192 c 0,0 -5.88235,0.11868 -13.00854,0.21985 0.10779,0.65136 0.18806,1.13402 0.30048,1.82483 0.70673,4.34613 1.38684,7.99255 1.5134,8.1018 0.12666,0.10926 1.25059,0.56377 2.50376,1.01136 1.2532,0.44758 2.9168,1.12002 3.69448,1.49504 l 1.41327,0.68156 6.55433,-4.9798 c 5.72866,-4.35672 6.68648,-4.98272 7.66713,-4.9908 1.44385,-0.0119 2.26664,0.62074 8.19016,6.30995 7.90764,7.59474 9.43421,9.58578 8.89124,11.57557 -0.12303,0.45082 -2.31789,3.53372 -4.87404,6.84861 l -4.64036,6.02413 1.33535,2.75923 c 0.73747,1.51638 1.51714,3.34098 1.73596,4.0564 0.24577,0.80333 0.63737,1.39098 1.02377,1.53901 0.34416,0.13186 4.10408,0.72221 8.3571,1.30816 1.07255,0.14778 1.74671,0.24849 2.54827,0.36277 1.51935,-1.7015 3.81466,-4.27575 6.19828,-6.95854 7.87157,-8.85947 6.72459,-7.9453 10.8275,-8.61847 11.44881,-1.87848 20.77605,-4.5769 29.62253,-8.5745 19.74075,-8.9205 30.91455,-17.8922 35.33122,-28.37279 2.01033,-4.77043 2.16946,-6.29687 2.14767,-20.71071 l -0.0221,-13.08161 z m -245.126211,37.05722 1.78047,1.70391 c 1.668407,1.59317 12.190378,11.16479 30.757613,27.97705 0,0 10.122187,8.78927 20.742476,18.36922 0.05879,-0.0127 0.231638,-0.0402 0.233702,-0.044 0.02244,-0.0421 0.536098,-1.3667 1.146159,-2.93511 0.610025,-1.56841 1.355864,-3.31965 1.658081,-3.89151 l 0.545249,-1.03333 -1.691446,-2.24257 c -0.933286,-1.23315 -3.084807,-3.91823 -4.773865,-5.95817 -3.719149,-4.49188 -4.041168,-5.05172 -3.616594,-6.28797 0.478087,-1.39216 3.677059,-5.05605 8.779955,-10.06954 5.087159,-4.99809 7.045713,-6.48427 8.568512,-6.49683 1.068245,-0.009 1.133374,0.0287 9.469855,6.29896 l 4.629221,3.48476 1.44667,-0.72553 c 0.79733,-0.40115 2.47122,-1.11479 3.71669,-1.58299 1.24548,-0.46818 2.34951,-0.93114 2.4593,-1.03333 0.10974,-0.10219 0.5424,-2.74379 0.957,-5.87024 0.22408,-1.68971 0.4298,-3.14453 0.623163,-4.41916 -7.498383,-0.2441 -15.590223,-0.61561 -15.590223,-0.61561 -7.307938,-0.01 -41.147759,-2.03958 -58.666512,-3.51774 -4.50459,-0.38008 -9.311856,-0.78651 -10.682818,-0.90142 l -2.492658,-0.20887 z m 245.148431,28.02103 -1.42438,3.69363 c -6.67733,17.32643 -18.70757,29.08301 -40.21632,39.29978 -7.59933,3.6097 -19.57933,8.0844 -27.65294,10.3224 -1.52148,0.4217 -2.94628,0.8271 -3.17148,0.9124 -0.22512,0.085 -3.21392,-2.1823 -6.64336,-5.0458 -0.65991,-0.551 -1.53961,-1.2775 -2.3035,-1.9127 -1.3126,0.252 -3.07327,0.5335 -5.6307,0.9234 -8.37828,1.2772 -8.16758,1.2281 -8.46837,1.9897 -0.14059,0.356 -0.87863,2.1072 -1.64694,3.8915 l -1.40212,3.2429 1.10168,1.55 c 0.60536,0.8501 2.82999,3.6561 4.9408,6.244 2.11075,2.5879 3.91583,5.0232 4.01717,5.4085 0.10138,0.3853 0.0944,1.0131 -0.022,1.3961 -0.35898,1.1887 -3.37873,4.7228 -8.07888,9.443 -6.21313,6.2398 -8.73912,7.8406 -10.73844,6.8046 -0.33106,-0.1714 -2.82447,-2.0153 -5.54175,-4.0894 -2.71721,-2.074 -5.43798,-4.1346 -6.0536,-4.584 l -1.1239,-0.8135 -1.30196,0.6816 c -0.71774,0.374 -2.46299,1.1183 -3.87251,1.6599 l -2.55947,0.9894 -0.74555,5.6393 c -0.45798,3.4807 -0.81627,5.9575 -1.15731,7.7501 7.38724,-0.8293 13.16441,-1.671 13.16433,-1.671 l 0.011,-0.4836 c 0.0597,0.3543 0.13399,0.5056 0.22255,0.5056 0.9036,0 10.01062,-1.428 15.90184,-2.4954 14.69091,-2.6619 28.61169,-6.3236 39.70448,-10.4433 10.75699,-3.995 24.97693,-11.0841 34.47431,-17.1929 13.24755,-8.5209 20.87162,-17.1121 24.23668,-27.29552 1.75465,-5.31019 2.00399,-8.10313 1.99188,-22.74441 l -0.011,-13.57628 z M 112.63832,966.4351 c -0.9449,0.002 -1.90122,0.0637 -2.8599,0.18688 -5.493,0.7058 -8.89398,2.42455 -13.053093,6.57379 -2.3488,2.34323 -2.9502,3.14424 -4.10619,5.56243 -3.06109,6.40407 -2.99343,13.13219 0.17805,19.41354 1.19872,2.37466 1.85439,3.24526 4.19521,5.52946 3.840943,3.7477 7.404443,5.577 12.352043,6.3209 2.16937,0.3262 6.68666,0.05 8.95798,-0.5386 7.55884,-1.958 13.84867,-8.3368 15.7349,-15.95078 1.62396,-6.55552 0.0146,-13.74723 -4.22862,-18.88589 -4.37864,-5.30267 -10.55655,-8.2255 -17.17038,-8.21173 z m -48.584613,36.9253 c -12.722918,9.6083 -24.548225,18.3912 -24.548225,18.3912 -4.798368,3.6043 -10.406846,7.8141 -12.463289,9.355 -2.056446,1.5409 -8.706496,6.5367 -14.777898,11.1029 -6.0714024,4.5661 -11.36010936,8.5268 -11.73999036,8.7943 -0.37988,0.2675 -0.599377,0.5621 -0.500739,0.6596 0.09867,0.098 5.61659796,0.3246 12.26298536,0.5057 12.441315,0.3389 63.007798,0.2038 69.505123,-0.1869 l 3.649962,-0.2198 c 0,0 7.199511,-0.344 14.922544,-0.7805 -0.3005,-1.5062 -0.74708,-4.0165 -1.17956,-6.7717 -0.63203,-4.0266 -1.267593,-7.5958 -1.413233,-7.9369 -0.1711,-0.4009 -0.94557,-0.8636 -2.19222,-1.2972 -1.06073,-0.3689 -2.76824,-1.038 -3.79464,-1.484 l -1.8695,-0.8025 -6.075814,4.65 c -3.341017,2.5603 -6.323765,4.7914 -6.632249,4.9578 -0.308557,0.1665 -1.051688,0.3028 -1.658081,0.3078 -1.243517,0.01 -1.693335,-0.3421 -9.113796,-7.3872 -5.687286,-5.3997 -7.832502,-7.9958 -7.845176,-9.4979 -0.01139,-1.3361 0.364354,-1.9306 4.729354,-7.5412 1.739625,-2.236 3.543883,-4.5652 4.006055,-5.1667 l 0.834616,-1.0883 -1.212965,-2.5064 c -0.666926,-1.376 -1.458346,-3.2651 -1.758214,-4.1993 -0.299833,-0.9342 -0.68071,-1.7506 -0.856833,-1.8138 -0.01603,-0.01 -0.204111,-0.03 -0.278217,-0.044 z"
       id="path3255"
       inkscape:connector-curvature="0"
       inkscape:export-filename="/home/firnsy/Downloads/bhack.png"
       inkscape:export-xdpi="7.9120874"
       inkscape:export-ydpi="7.9120874" />
  </g>
</svg>
